<?xml version="1.0" encoding="utf-8"?>
<!-- Generator: Adobe Illustrator 19.1.0, SVG Export Plug-In . SVG Version: 6.00 Build 0)  -->
<svg version="1.1" id="Layer_1" xmlns="http://www.w3.org/2000/svg" xmlns:xlink="http://www.w3.org/1999/xlink" x="0px" y="0px"
	 viewBox="0 0 612 792" style="enable-background:new 0 0 612 792;" xml:space="preserve">
<style type="text/css">
	.st0{fill:#FFFFFF;}
</style>
<path class="st0" d="M295.6,556.7c-1.7-1.4-2.9-2.3-4.1-3.3C219,493.6,146.4,433.8,73.8,374c-1.2-1-2.1-1.8-2.1-3.6
	c0.1-39.5,0.1-79,0.1-118.5c0-0.6,0.1-1.3,0.1-2.3c1.1,0.8,1.8,1.4,2.6,2.1C134.7,301.9,195,352,255.2,402.2
	c12.7,10.6,25.3,21.1,38,31.6c1.7,1.4,2.4,2.8,2.4,5c-0.1,38.2-0.1,76.5-0.1,114.7C295.6,554.3,295.6,555.2,295.6,556.7z"/>
<path class="st0" d="M313.7,732.3c0-1.5,0-2.4,0-3.3c0-37.1,0-74.2-0.1-111.2c0-2.2,0.7-3.5,2.3-4.8
	c73.2-58.8,146.3-117.6,219.5-176.5c0.6-0.5,1.2-0.9,2-1.5c0.1,0.9,0.2,1.5,0.2,2.1c0,38.1,0,76.1-0.1,114.2c0,1.2-0.8,2.7-1.7,3.5
	c-42.4,34-84.9,68-127.4,101.9c-30.8,24.6-61.7,49.3-92.5,73.9C315.3,731.1,314.7,731.5,313.7,732.3z"/>
<path class="st0" d="M149.2,293.9c-23.9-19.9-47.8-39.8-72-59.9C150,175.5,222.7,117,295.7,58.3c0.1,1.1,0.1,1.9,0.1,2.7
	c0,37.9,0,75.8-0.1,113.7c0,1.1-0.6,2.6-1.5,3.3c-48.1,38.5-96.3,77-144.4,115.5C149.8,293.6,149.6,293.7,149.2,293.9z"/>
<path class="st0" d="M430.6,271.7c-7.7-6.2-15-12-22.3-17.8c-31.7-25.3-63.5-50.5-95.2-75.9c-0.9-0.7-1.7-2.1-1.7-3.2
	c-0.1-38.2-0.1-76.5-0.1-114.7c0-0.4,0-0.8,0.1-1.7c0.8,0.6,1.5,1,2.1,1.5c38.5,30.8,77,61.6,115.5,92.5c0.9,0.7,1.7,2.1,1.7,3.2
	c0.1,38,0.1,76,0.1,114C430.7,270.2,430.6,270.7,430.6,271.7z"/>
<path class="st0" d="M298.3,732.4c-10.3-8.2-20.2-16-30-23.9c-29.3-23.3-58.5-46.6-87.8-69.9c-1.1-0.9-1.8-1.7-1.8-3.3
	c0.1-38.2,0-76.5,0-114.7c0-0.4,0-0.8,0-1.8c0.9,0.7,1.6,1.1,2.2,1.6c38.5,30.8,77,61.6,115.5,92.4c1.2,0.9,1.9,1.8,1.9,3.5
	c-0.1,37.9,0,75.8,0,113.7C298.3,730.7,298.3,731.3,298.3,732.4z"/>
<path class="st0" d="M427.9,343.3c0,1.4,0,2.2,0,3c0,37.7,0,75.3,0,113c0,1.6-0.3,2.8-1.6,3.9c-37.9,31-75.8,62.1-113.6,93.2
	c-0.3,0.3-0.7,0.5-1.3,1c-0.1-0.9-0.2-1.6-0.2-2.3c0-38.7,0-77.5,0.1-116.2c0-1.1,0.7-2.6,1.5-3.3c37.6-30.2,75.3-60.3,112.9-90.5
	C426.3,344.5,426.9,344.1,427.9,343.3z"/>
<path class="st0" d="M421.6,328.7c-24.3,19.5-48.5,38.8-72.7,58.2c-4.4-3.6-8.7-7.1-13-10.6c-7.7-6.3-15.3-12.6-23.1-18.8
	c-1.2-1-1.7-2-1.7-3.6c0-36.7,0-73.3,0-110c0-0.7,0.1-1.4,0.2-2.6C348.2,270.6,384.7,299.5,421.6,328.7z"/>
<path class="st0" d="M534.3,417.9c-24.9,20-49.5,39.8-74.3,59.7c-4.4-3.5-8.5-7.2-13-10.5c-2.8-2.1-3.8-4.3-3.8-7.9
	c0.1-36.7,0.1-73.5,0.1-110.2c0-0.9,0-1.8,0-3.2C473.8,370.1,503.8,393.9,534.3,417.9z"/>
<path class="st0" d="M163.5,515.9c0,1.3,0,2.2,0,3.1c0,38.3,0,76.7,0,115c0,2.1-0.7,3.3-2.4,4.4c-12,7.6-24,15.4-35.9,23.1
	c-0.7,0.4-1.4,0.8-2.4,1.5c0-1.2,0-2.1,0-3c0-39.7,0-79.3,0-119c0-2,0.5-3.1,2.3-4c11.9-6.4,23.8-13,35.7-19.6
	C161.5,516.9,162.3,516.5,163.5,515.9z"/>
<path class="st0" d="M486.8,129.9c0,2.8,0,5.2,0,7.7c-0.5,33.7-1.1,67.5-1.6,101.2c0,2-0.6,3.3-2.3,4.6
	c-11.6,9.1-23.2,18.2-34.8,27.3c-0.6,0.5-1.2,0.9-2,1.5c-0.1-0.9-0.2-1.5-0.2-2.1c0-37.8,0-75.7,0.1-113.5c0-1,0.6-2.5,1.4-3
	c12.6-7.8,25.3-15.4,38-23C485.8,130.3,486.2,130.2,486.8,129.9z"/>
</svg>
